<svg preserveAspectRatio="none" overflow="visible" style="display: block;" width="2.79542" height="12.5794" viewBox="0 0 2.79542 12.5794" fill="none" xmlns="http://www.w3.org/2000/svg">
<g id="Vector">
<g id="Vector_2">
<path d="M2.79542 1.39771C2.79542 0.62897 2.16645 9.46986e-08 1.39771 6.10959e-08C0.62897 2.74931e-08 5.36909e-07 0.62897 5.03307e-07 1.39771C4.69704e-07 2.16645 0.62897 2.79542 1.39771 2.79542C2.16645 2.79542 2.79542 2.16645 2.79542 1.39771Z" fill="#A4A4A4"/>
<path d="M2.79542 11.1817C2.79542 10.4129 2.16645 9.78397 1.39771 9.78397C0.62897 9.78397 1.09238e-07 10.4129 7.56357e-08 11.1817C4.2033e-08 11.9504 0.62897 12.5794 1.39771 12.5794C2.16645 12.5794 2.79542 11.9504 2.79542 11.1817Z" fill="#A4A4A4"/>
<path d="M2.79542 6.2897C2.79542 5.52096 2.16645 4.89199 1.39771 4.89199C0.62897 4.89199 3.23074e-07 5.52096 2.89471e-07 6.2897C2.55868e-07 7.05844 0.62897 7.68741 1.39771 7.68741C2.16645 7.68741 2.79542 7.05844 2.79542 6.2897Z" fill="#A4A4A4"/>
</g>
</g>
</svg>
